<?xml version="1.0" encoding="UTF-8" standalone="no"?>
<svg width="100px" height="30px" viewBox="0 0 100 30" version="1.1" xmlns="http://www.w3.org/2000/svg" xmlns:xlink="http://www.w3.org/1999/xlink">
   
    <defs></defs>
    <g id="Page-1" stroke="none" stroke-width="1" fill="none" fill-rule="evenodd">
        <g id="Desktop-HD" transform="translate(-74.000000, -35.000000)">
            <g id="Logo-Admake" transform="translate(74.000000, 35.000000)">
                <path d="M17.142625,29.4571369 L23.511875,29.4571369 L15.505875,0.0994605809 L7.976,0.0994605809 L0,29.4571369 L6.33925,29.4571369 L7.708,23.2578423 L15.7735,23.2578423 L17.142625,29.4571369 L17.142625,29.4571369 Z M11.696625,5.09925311 L11.785625,5.09925311 L14.702125,18.3748133 L8.7795,18.3748133 L11.696625,5.09925311 L11.696625,5.09925311 Z" id="A" fill="#C16058"></path>
                <path d="M24.3745,6.7579668 C21.964,6.7579668 20.17825,7.66443983 19.047,9.50651452 C17.91575,11.3780913 17.350625,14.3604149 17.350625,18.4538589 C17.350625,22.4597925 17.91575,25.3842324 19.047,27.2553112 C20.17825,29.0683817 21.9635,29.9748548 24.3745,29.9748548 C25.59475,29.9748548 26.606375,29.7409544 27.469625,29.3021577 C28.33275,28.8049793 29.106375,28.0447718 29.7615,27.0214108 L29.8505,27.0214108 L29.8505,29.4481743 L35.4165,29.4481743 L35.4165,0.149502075 L29.582875,0.149502075 L29.582875,9.41863071 L29.523375,9.41863071 C28.86875,8.51215768 28.124625,7.83946058 27.321,7.40116183 C26.487875,6.96286307 25.50575,6.7579668 24.3745,6.7579668 L24.3745,6.7579668 Z M28.987875,23.9225726 C28.51175,25.1509544 27.648625,25.7646473 26.368875,25.7646473 C25.089125,25.7646473 24.256,25.1504564 23.749875,23.9225726 C23.36275,22.8990871 23.15475,21.0570124 23.15475,18.4544813 C23.15475,15.8813278 23.36275,14.0682573 23.749875,13.0157676 C24.256,11.7873859 25.089125,11.173195 26.368875,11.173195 C27.648625,11.173195 28.51175,11.7873859 28.987875,13.0157676 C29.4045,14.0682573 29.583,15.8813278 29.583,18.4544813 C29.583,21.0570124 29.4045,22.8990871 28.987875,23.9225726 L28.987875,23.9225726 Z" id="d" fill="#EAC161"></path>
                <path d="M37.708,9.573361 L37.708,7.23410788 L32.1425,7.23410788 L32.1425,29.4570124 L37.946125,29.4570124 L37.946125,14.8950622 C37.946125,13.6671784 38.214125,12.7021992 38.74975,12.0590041 C39.255875,11.4448133 39.97,11.123029 40.892625,11.123029 C41.66625,11.123029 42.231875,11.3864315 42.589,11.883112 C42.9165,12.3219087 43.095125,13.0529876 43.095125,14.0174689 L43.095125,29.456888 L48.89875,29.456888 L48.89875,14.8950622 C48.89875,13.6671784 49.16675,12.7021992 49.732375,12.0590041 C50.2385,11.4448133 50.952625,11.123029 51.84525,11.123029 C52.618875,11.123029 53.214,11.3864315 53.541625,11.883112 C53.89875,12.3219087 54.07725,13.0529876 54.07725,14.0174689 L54.07725,29.456888 L59.880875,29.456888 L59.880875,13.4039004 C59.880875,11.2110373 59.43425,9.5439834 58.511625,8.43298755 C57.559,7.26311203 56.130625,6.70792531 54.22575,6.70792531 C52.8865,6.70792531 51.72575,7.00033195 50.773625,7.58502075 C49.791375,8.22809129 49.07725,9.10556017 48.660625,10.2750622 L48.571125,10.2750622 C48.273625,9.16419087 47.6485,8.25759336 46.72575,7.64340249 C45.803125,7.00020747 44.701875,6.70792531 43.362625,6.70792531 C42.142375,6.70792531 41.10075,6.91282158 40.208,7.35112033 C39.315375,7.84829876 38.48175,8.57937759 37.7975,9.573361 L37.708,9.573361 L37.708,9.573361 Z" id="m" fill="#B3CA79"></path>
                <path d="M71.070875,8.66688797 C69.850625,7.43850622 67.61875,6.82481328 64.404125,6.82481328 C61.993125,6.82481328 60.148375,7.29261411 58.838625,8.28709544 C57.350375,9.3979668 56.57675,11.1526556 56.57675,13.5792946 L56.57675,14.1349793 L61.57675,14.1349793 L61.57675,13.4917842 C61.57675,12.5853112 61.84425,11.8541079 62.290875,11.3279253 C62.767,10.7722407 63.451625,10.5088382 64.34475,10.5088382 C66.189625,10.5088382 67.14225,11.4443154 67.14225,13.3453942 C67.14225,14.076473 66.93375,14.6611618 66.606625,15.0414523 C66.2795,15.4217427 65.6545,15.743029 64.76125,15.9479253 L61.368625,16.7960166 C59.34475,17.3517012 57.916,18.1117842 57.08275,19.1062656 C56.190125,20.129751 55.7435,21.649917 55.7435,23.6678838 C55.7435,25.3345643 56.160125,26.7382158 56.93425,27.8202075 C57.886375,29.1654772 59.28575,29.8086722 61.071,29.8086722 C62.58875,29.8086722 63.779,29.6042739 64.642125,29.2529876 C65.56475,28.8726971 66.3685,28.1126141 67.023125,27.0891286 L67.142125,27.0891286 C67.350125,28.2295021 67.58875,29.0190871 67.82675,29.4578838 L73.27325,29.4578838 C73.00525,28.8436929 72.826625,28.2295021 72.707625,27.6448133 C72.588625,27.0601245 72.558625,26.2410373 72.558625,25.1885477 L72.558625,13.5502905 C72.559125,11.2690456 72.083125,9.63186722 71.070875,8.66688797 L71.070875,8.66688797 Z M61.696125,25.2171784 C61.369,24.6614938 61.19,23.9597925 61.19,23.0533195 C61.19,22.0588382 61.428,21.269751 61.963625,20.7430705 C62.49925,20.1583817 63.362375,19.7490871 64.553125,19.4856846 C65.535375,19.2807884 66.3985,18.9009959 67.142625,18.4036929 L67.142625,22.7314108 C67.142625,23.8422822 66.726,24.7198755 65.892375,25.3340664 C65.20775,25.860249 64.374625,26.1236515 63.451875,26.1236515 C62.67825,26.1237759 62.112625,25.8018672 61.696125,25.2171784 L61.696125,25.2171784 Z" id="a" fill="#60A8DD"></path>
                <path d="M75.50575,0.0993360996 L69.672125,0.0993360996 L69.672125,29.4570124 L75.50575,29.4570124 L75.50575,22.9655602 L77.559125,20.3043983 L82.41,29.456639 L88.83875,29.456639 L81.309375,15.9471784 L87.857125,7.14572614 L81.458375,7.14572614 L75.56525,15.4793776 L75.50575,15.4793776 L75.50575,0.0993360996 L75.50575,0.0993360996 L75.50575,0.0993360996 Z" id="k" fill="#655E9F"></path>
                <path d="M98.422125,9.80726141 C97.142375,7.81879668 94.97,6.82481328 91.785375,6.82481328 C88.21425,6.82481328 85.74375,7.96518672 84.345,10.2460581 C83.27325,11.9711203 82.76775,14.5737759 82.76775,18.0824066 C82.76775,21.7959336 83.154875,24.4275934 83.988,26.0357676 C85.26775,28.5504149 87.76775,29.8078008 91.547375,29.8078008 C94.225875,29.8078008 96.24975,29.1351037 97.589,27.790332 C98.86875,26.5039419 99.553375,24.5444813 99.672375,21.9129461 L94.553375,21.9129461 C94.374875,23.3457261 94.07725,24.3985892 93.63075,25.0417842 C93.124625,25.7728631 92.3805,26.1237759 91.457875,26.1237759 C90.446125,26.1237759 89.702,25.5975934 89.226,24.4860996 C88.809375,23.5796266 88.571375,22.4101245 88.571375,20.9184647 L88.571375,19.1053942 L100,19.1053942 L100,17.8770124 C99.999375,14.1641079 99.46375,11.4739419 98.422125,9.80726141 L98.422125,9.80726141 Z M94.553375,15.8306639 L88.57125,15.8306639 L88.57125,14.9535685 C88.57125,13.7251867 88.80925,12.7017012 89.225875,11.9416183 C89.732,10.976639 90.505625,10.5088382 91.606875,10.5088382 C92.738125,10.5088382 93.48225,10.9476349 93.928375,11.883112 C94.28525,12.6143154 94.463875,13.9595851 94.553375,15.8306639 L94.553375,15.8306639 Z" id="e" fill="#B96CA3"></path>
                <path d="M18.423375,10.7972614 C18.423375,10.7972614 17.95975,12.0983402 17.80475,12.9949793 C17.64925,13.8916183 17.49475,14.8875934 17.450625,15.6138174 C17.406625,16.3395436 17.342125,17.7885062 17.352125,18.1722822 C17.362125,18.5560581 17.351125,20.0045228 17.408125,20.543527 C17.464625,21.0825311 17.483625,21.8882988 17.619125,22.7162241 C17.754625,23.5441494 17.914125,24.4260996 18.09825,25.006805 C18.28225,25.5875104 18.556875,26.473444 19.077875,27.3028631 C19.5995,28.1322822 20.368625,28.839834 20.93325,29.1306224 C21.497875,29.4215353 21.450375,29.4372199 21.578375,29.45639 L23.51225,29.45639 L18.423375,10.7972614 L18.423375,10.7972614 Z" id="sobreposicao-1" fill="#D68859"></path>
                <rect id="sobreposicao-2" fill="#AEC236" x="32.1425" y="7.23410788" width="3.273625" height="22.2145643"></rect>
                <path d="M59.88075,17.2829876 C59.88075,17.2829876 56.0845,18.3433195 55.8235,22.2784232 C55.8235,22.2784232 55.369875,25.4692531 56.724625,27.5042739 C56.724625,27.5042739 57.63125,28.9842324 59.015125,29.456888 L59.88075,29.456888 C59.88075,29.4571369 59.88075,17.2829876 59.88075,17.2829876 L59.88075,17.2829876 Z" id="sobreposicao-3" fill="#79B2C7"></path>
                <path d="M58.568,8.50319502 C58.568,8.50319502 56.363625,10.0607054 56.577125,14.1349793 L59.88075,14.1349793 C59.88075,14.1349793 60.07325,10.1280498 58.568,8.50319502 L58.568,8.50319502 Z" id="sobreposicao-4_1_" fill="#79B2C7"></path>
                <path d="M69.672125,7.71410788 C69.672125,7.71410788 71.445,8.40448133 72.096125,10.3142739 C72.096125,10.3142739 72.61675,11.8585892 72.55175,13.6038174 L72.56125,25.3002075 C72.56125,25.3002075 72.57075,27.1092946 72.69125,27.5756017 C72.69125,27.5756017 73.037375,29.0727386 73.273375,29.4573859 L69.672125,29.4573859 L69.672125,7.71410788 L69.672125,7.71410788 L69.672125,7.71410788 Z" id="sobreposicao-5" fill="#757FB6"></path>
                <path d="M82.767625,18.5639004 C82.767625,18.5639004 82.868125,22.5806639 83.27125,23.9544398 C83.674375,25.3282158 83.982875,26.0602905 84.153375,26.3423651 C84.323875,26.6239419 85.366625,28.716473 88.44525,29.4570124 L88.838375,29.4570124 L82.767625,18.5639004 L82.767625,18.5639004 Z" id="sobreposicao-6" fill="#8B398A"></path>
                <path d="M87.559,7.54605809 C87.559,7.54605809 85.90825,8.13709544 84.748,9.65838174 C83.58825,11.1795436 83.23325,13.0824896 83.16175,13.4569295 C83.091125,13.8318672 87.559,7.54605809 87.559,7.54605809 L87.559,7.54605809 Z" id="sobreposicao-7" fill="#8B398A"></path>
            </g>
        </g>
    </g>
</svg>